<?xml version="1.0" encoding="utf-8"?>
<!-- Generator: Adobe Illustrator 26.0.3, SVG Export Plug-In . SVG Version: 6.00 Build 0)  -->
<svg version="1.1" id="Layer_1" xmlns="http://www.w3.org/2000/svg" xmlns:xlink="http://www.w3.org/1999/xlink" x="0px" y="0px"
	 viewBox="0 0 32.4 36.2" style="enable-background:new 0 0 32.4 36.2;" xml:space="preserve">
<style type="text/css">
	.st0{fill:#FFFFFF;}
</style>
<path class="st0" d="M28.4,1.2c0,0.7-0.2,1.4-0.4,2.1c-0.4,2.1-0.9,4.3-1.4,6.4c-0.1,0.4,0,0.5,0.4,0.5c1,0,1.9,0,2.9,0
	c0.4,0,0.6,0.1,0.6,0.5c0,1.2,0,2.3,0,3.5c0,0.4-0.2,0.5-0.6,0.5c-1.3,0-2.5,0-3.8,0c-0.4,0-0.5,0.1-0.6,0.5c-0.4,2-0.8,4.1-1.3,6.1
	c-0.1,0.3,0,0.4,0.4,0.4c1.8,0,3.5,0,5.3,0c0.5,0,0.6,0.2,0.6,0.6c0,1.1,0,2.3,0,3.4c0,0.4-0.1,0.5-0.5,0.5c-2,0-4,0-5.9,0
	c-0.7,0-0.7,0-0.8,0.7c-0.5,2.5-1.1,5-1.6,7.5C21.4,35,21.4,35,20.7,35c-1.1,0-2.2,0-3.3,0c-0.4,0-0.5-0.1-0.4-0.5
	c0.6-2.6,1.1-5.2,1.7-7.8c0.1-0.6,0.1-0.6-0.5-0.6c-2.4,0-4.8,0-7.2,0c-0.4,0-0.6,0.1-0.7,0.5c-0.5,2.6-1.1,5.2-1.6,7.8
	c-0.1,0.4-0.2,0.6-0.7,0.6c-1.2,0-2.3,0-3.5,0c-0.4,0-0.5-0.1-0.4-0.5c0.6-2.6,1.1-5.2,1.7-7.8C6,26.2,6,26.1,5.4,26.1
	c-1.1,0-2.3,0-3.4,0c0-1.5,0-3,0-4.5c1.5,0,2.9,0,4.4,0c0.4,0,0.5-0.1,0.6-0.5c0.4-2,0.8-4,1.2-6c0.1-0.4,0-0.5-0.4-0.5
	c-1.9,0-3.9,0-5.8,0c0-1.5,0-3,0-4.5c2.2,0,4.5,0,6.7,0c0.4,0,0.5-0.1,0.6-0.5C9.5,8.7,9.8,7.8,10,6.9c0.4-1.9,0.8-3.8,1.2-5.7
	c1.5,0,3,0,4.5,0c0,0.1,0,0.3-0.1,0.4c-0.6,2.7-1.2,5.3-1.8,8c-0.1,0.4,0,0.5,0.4,0.5c2.4,0,4.8,0,7.2,0c0.3,0,0.5-0.1,0.6-0.5
	c0.2-1.2,0.5-2.3,0.7-3.5c0.4-1.7,0.7-3.4,1.1-5C25.4,1.2,26.9,1.2,28.4,1.2z M15.6,21.6c1.2,0,2.4,0,3.6,0c0.3,0,0.5-0.1,0.5-0.4
	c0.4-2,0.8-4,1.2-6.1c0.1-0.4,0-0.5-0.4-0.5c-2.4,0-4.9,0-7.3,0c-0.3,0-0.5,0.1-0.5,0.4c-0.4,2-0.8,4-1.3,6
	c-0.1,0.5-0.1,0.5,0.5,0.5C13.2,21.6,14.4,21.6,15.6,21.6z"/>
</svg>
