<svg width="6991" height="908" viewBox="0 0 6991 908" fill="none" xmlns="http://www.w3.org/2000/svg">
<path d="M222.433 84.316C284.811 84.316 339.321 96.6791 385.964 121.405C432.607 146.132 468.572 180.973 493.86 225.93C519.711 270.325 532.636 321.745 532.636 380.189C532.636 438.071 519.711 489.49 493.86 534.447C468.572 579.404 432.326 614.246 385.121 638.972C338.478 663.698 284.249 676.062 222.433 676.062H0.738993V84.316H222.433ZM213.16 551.306C267.671 551.306 310.099 536.414 340.445 506.63C370.791 476.846 385.964 434.699 385.964 380.189C385.964 325.678 370.791 283.25 340.445 252.904C310.099 222.558 267.671 207.386 213.16 207.386H144.882V551.306H213.16ZM685.682 156.809C660.394 156.809 639.602 149.503 623.305 134.892C607.57 119.72 599.702 101.175 599.702 79.2583C599.702 56.7798 607.57 38.2351 623.305 23.6241C639.602 8.45111 660.394 0.864625 685.682 0.864625C710.409 0.864625 730.639 8.45111 746.374 23.6241C762.671 38.2351 770.82 56.7798 770.82 79.2583C770.82 101.175 762.671 119.72 746.374 134.892C730.639 149.503 710.409 156.809 685.682 156.809ZM757.332 205.7V676.062H613.189V205.7H757.332ZM1040.5 198.956C1073.65 198.956 1102.59 205.7 1127.32 219.187C1152.61 232.674 1171.99 250.376 1185.48 272.292V205.7H1329.62V675.219C1329.62 718.49 1320.91 757.546 1303.49 792.388C1286.63 827.791 1260.5 855.889 1225.1 876.682C1190.26 897.474 1146.71 907.871 1094.44 907.871C1024.76 907.871 968.283 891.293 925.012 858.137C881.741 825.543 857.015 781.148 850.833 724.952H993.291C997.786 742.935 1008.46 756.984 1025.32 767.099C1042.18 777.777 1062.97 783.115 1087.7 783.115C1117.48 783.115 1141.09 774.405 1158.51 756.984C1176.49 740.125 1185.48 712.87 1185.48 675.219V608.626C1171.43 630.543 1152.04 648.525 1127.32 662.574C1102.59 676.062 1073.65 682.805 1040.5 682.805C1001.72 682.805 966.597 672.971 935.127 653.302C903.658 633.071 878.65 604.692 860.106 568.165C842.123 531.075 833.131 488.366 833.131 440.038C833.131 391.709 842.123 349.281 860.106 312.753C878.65 276.226 903.658 248.128 935.127 228.459C966.597 208.79 1001.72 198.956 1040.5 198.956ZM1185.48 440.881C1185.48 404.915 1175.37 376.536 1155.14 355.743C1135.47 334.951 1111.3 324.555 1082.64 324.555C1053.98 324.555 1029.54 334.951 1009.31 355.743C989.638 375.974 979.803 404.072 979.803 440.038C979.803 476.003 989.638 504.663 1009.31 526.018C1029.54 546.81 1053.98 557.207 1082.64 557.207C1111.3 557.207 1135.47 546.81 1155.14 526.018C1175.37 505.225 1185.48 476.846 1185.48 440.881ZM1506.4 156.809C1481.11 156.809 1460.32 149.503 1444.02 134.892C1428.29 119.72 1420.42 101.175 1420.42 79.2583C1420.42 56.7798 1428.29 38.2351 1444.02 23.6241C1460.32 8.45111 1481.11 0.864625 1506.4 0.864625C1531.12 0.864625 1551.36 8.45111 1567.09 23.6241C1583.39 38.2351 1591.54 56.7798 1591.54 79.2583C1591.54 101.175 1583.39 119.72 1567.09 134.892C1551.36 149.503 1531.12 156.809 1506.4 156.809ZM1578.05 205.7V676.062H1433.91V205.7H1578.05ZM1944.66 553.835V676.062H1871.33C1819.06 676.062 1778.32 663.417 1749.1 638.129C1719.88 612.279 1705.27 570.413 1705.27 512.531V325.397H1647.95V205.7H1705.27V91.0595H1849.41V205.7H1943.82V325.397H1849.41V514.217C1849.41 528.266 1852.78 538.381 1859.53 544.563C1866.27 550.744 1877.51 553.835 1893.24 553.835H1944.66ZM1996.29 440.038C1996.29 391.709 2005.28 349.281 2023.27 312.753C2041.81 276.226 2066.82 248.128 2098.29 228.459C2129.76 208.79 2164.88 198.956 2203.66 198.956C2236.81 198.956 2265.75 205.7 2290.48 219.187C2315.77 232.674 2335.16 250.376 2348.64 272.292V205.7H2492.79V676.062H2348.64V609.469C2334.59 631.386 2314.93 649.087 2289.64 662.574C2264.91 676.062 2235.97 682.805 2202.81 682.805C2164.6 682.805 2129.76 672.971 2098.29 653.302C2066.82 633.071 2041.81 604.692 2023.27 568.165C2005.28 531.075 1996.29 488.366 1996.29 440.038ZM2348.64 440.881C2348.64 404.915 2338.53 376.536 2318.3 355.743C2298.63 334.951 2274.46 324.555 2245.8 324.555C2217.14 324.555 2192.7 334.951 2172.47 355.743C2152.8 375.974 2142.97 404.072 2142.97 440.038C2142.97 476.003 2152.8 504.663 2172.47 526.018C2192.7 546.81 2217.14 557.207 2245.8 557.207C2274.46 557.207 2298.63 546.81 2318.3 526.018C2338.53 505.225 2348.64 476.846 2348.64 440.881ZM2741.21 52.2842V676.062H2597.07V52.2842H2741.21ZM3367.38 676.062L3168.44 414.749V676.062H3024.3V84.316H3168.44V343.942L3365.69 84.316H3535.12L3305.84 374.288L3543.55 676.062H3367.38ZM3826.16 682.805C3780.08 682.805 3738.5 672.971 3701.41 653.302C3664.88 633.633 3635.94 605.535 3614.58 569.008C3593.79 532.48 3583.4 489.771 3583.4 440.881C3583.4 392.552 3594.07 350.124 3615.43 313.596C3636.78 276.507 3666 248.128 3703.09 228.459C3740.18 208.79 3781.77 198.956 3827.85 198.956C3873.93 198.956 3915.51 208.79 3952.6 228.459C3989.69 248.128 4018.92 276.507 4040.27 313.596C4061.62 350.124 4072.3 392.552 4072.3 440.881C4072.3 489.209 4061.34 531.918 4039.43 569.008C4018.07 605.535 3988.57 633.633 3950.92 653.302C3913.83 672.971 3872.24 682.805 3826.16 682.805ZM3826.16 558.05C3853.7 558.05 3877.02 547.934 3896.13 527.704C3915.8 507.473 3925.63 478.532 3925.63 440.881C3925.63 403.229 3916.08 374.288 3896.97 354.058C3878.43 333.827 3855.39 323.712 3827.85 323.712C3799.75 323.712 3776.43 333.827 3757.88 354.058C3739.34 373.726 3730.07 402.667 3730.07 440.881C3730.07 478.532 3739.06 507.473 3757.04 527.704C3775.59 547.934 3798.63 558.05 3826.16 558.05ZM4435.37 200.642C4490.45 200.642 4534.28 218.625 4566.87 254.59C4600.03 289.994 4616.61 338.885 4616.61 401.262V676.062H4473.31V420.65C4473.31 389.18 4465.16 364.735 4448.86 347.314C4432.56 329.893 4410.65 321.183 4383.11 321.183C4355.57 321.183 4333.66 329.893 4317.36 347.314C4301.06 364.735 4292.92 389.18 4292.92 420.65V676.062H4148.77V205.7H4292.92V268.077C4307.53 247.285 4327.2 230.988 4351.92 219.187C4376.65 206.824 4404.47 200.642 4435.37 200.642ZM4688.11 440.038C4688.11 391.709 4697.1 349.281 4715.09 312.753C4733.63 276.226 4758.64 248.128 4790.11 228.459C4821.58 208.79 4856.7 198.956 4895.48 198.956C4926.38 198.956 4954.48 205.419 4979.77 218.344C5005.62 231.269 5025.85 248.69 5040.46 270.606V52.2842H5184.6V676.062H5040.46V608.626C5026.97 631.105 5007.59 649.087 4982.3 662.574C4957.57 676.062 4928.63 682.805 4895.48 682.805C4856.7 682.805 4821.58 672.971 4790.11 653.302C4758.64 633.071 4733.63 604.692 4715.09 568.165C4697.1 531.075 4688.11 488.366 4688.11 440.038ZM5040.46 440.881C5040.46 404.915 5030.35 376.536 5010.12 355.743C4990.45 334.951 4966.28 324.555 4937.62 324.555C4908.96 324.555 4884.52 334.951 4864.29 355.743C4844.62 375.974 4834.78 404.072 4834.78 440.038C4834.78 476.003 4844.62 504.663 4864.29 526.018C4884.52 546.81 4908.96 557.207 4937.62 557.207C4966.28 557.207 4990.45 546.81 5010.12 526.018C5030.35 505.225 5040.46 476.846 5040.46 440.881ZM5502.99 682.805C5456.91 682.805 5415.33 672.971 5378.24 653.302C5341.71 633.633 5312.77 605.535 5291.41 569.008C5270.62 532.48 5260.23 489.771 5260.23 440.881C5260.23 392.552 5270.9 350.124 5292.26 313.596C5313.61 276.507 5342.83 248.128 5379.92 228.459C5417.01 208.79 5458.6 198.956 5504.68 198.956C5550.76 198.956 5592.34 208.79 5629.43 228.459C5666.52 248.128 5695.75 276.507 5717.1 313.596C5738.45 350.124 5749.13 392.552 5749.13 440.881C5749.13 489.209 5738.17 531.918 5716.26 569.008C5694.9 605.535 5665.4 633.633 5627.75 653.302C5590.66 672.971 5549.07 682.805 5502.99 682.805ZM5502.99 558.05C5530.53 558.05 5553.85 547.934 5572.96 527.704C5592.63 507.473 5602.46 478.532 5602.46 440.881C5602.46 403.229 5592.91 374.288 5573.8 354.058C5555.26 333.827 5532.21 323.712 5504.68 323.712C5476.58 323.712 5453.26 333.827 5434.71 354.058C5416.17 373.726 5406.9 402.667 5406.9 440.881C5406.9 478.532 5415.89 507.473 5433.87 527.704C5452.42 547.934 5475.46 558.05 5502.99 558.05ZM6087.76 553.835V676.062H6014.42C5962.16 676.062 5921.42 663.417 5892.19 638.129C5862.97 612.279 5848.36 570.413 5848.36 512.531V325.397H5791.04V205.7H5848.36V91.0595H5992.5V205.7H6086.91V325.397H5992.5V514.217C5992.5 528.266 5995.88 538.381 6002.62 544.563C6009.36 550.744 6020.6 553.835 6036.34 553.835H6087.76ZM6430.2 553.835V676.062H6356.87C6304.6 676.062 6263.86 663.417 6234.64 638.129C6205.42 612.279 6190.81 570.413 6190.81 512.531V325.397H6133.49V205.7H6190.81V91.0595H6334.95V205.7H6429.36V325.397H6334.95V514.217C6334.95 528.266 6338.32 538.381 6345.07 544.563C6351.81 550.744 6363.05 553.835 6378.78 553.835H6430.2ZM6990.97 205.7L6695.94 899.441H6540.84L6648.74 660.046L6457.39 205.7H6618.39L6727.13 499.887L6835.03 205.7H6990.97Z" fill="#141414"/>
</svg>
