<svg width="2581" height="2581" viewBox="0 0 2581 2581" fill="none" xmlns="http://www.w3.org/2000/svg">
<rect y="0.319336" width="2580.38" height="2580.38" rx="207" fill="#F99F00"/>
<path d="M911.658 1216.3L888.056 1326.73H989.209V1456.54H860.239L832.422 1585.51H697.551L725.368 1456.54H585.439L557.622 1585.51H422.752L450.569 1456.54H325.813V1326.73H478.386L501.988 1216.3H379.761V1086.49H528.962L555.936 961.734H690.807L663.833 1086.49H803.761L830.736 961.734H965.606L938.632 1086.49H1043.16V1216.3H911.658ZM776.787 1216.3H636.859L613.257 1326.73H753.185L776.787 1216.3ZM1345.18 993.766C1407.56 993.766 1462.07 1006.13 1508.71 1030.86C1555.35 1055.58 1591.32 1090.42 1616.61 1135.38C1642.46 1179.78 1655.38 1231.19 1655.38 1289.64C1655.38 1347.52 1642.46 1398.94 1616.61 1443.9C1591.32 1488.85 1555.07 1523.7 1507.87 1548.42C1461.23 1573.15 1407 1585.51 1345.18 1585.51H1123.49V993.766H1345.18ZM1335.91 1460.76C1390.42 1460.76 1432.85 1445.86 1463.19 1416.08C1493.54 1386.3 1508.71 1344.15 1508.71 1289.64C1508.71 1235.13 1493.54 1192.7 1463.19 1162.35C1432.85 1132.01 1390.42 1116.84 1335.91 1116.84H1267.63V1460.76H1335.91ZM2079.01 1585.51L1880.08 1324.2V1585.51H1735.94V993.766H1880.08V1253.39L2077.33 993.766H2246.76L2017.48 1283.74L2255.19 1585.51H2079.01Z" fill="white"/>
</svg>
