<?xml version="1.0" encoding="utf-8"?>
<!-- Generator: Adobe Illustrator 26.0.3, SVG Export Plug-In . SVG Version: 6.00 Build 0)  -->
<svg version="1.1" id="Layer_1" xmlns="http://www.w3.org/2000/svg" xmlns:xlink="http://www.w3.org/1999/xlink" x="0px" y="0px"
	 viewBox="0 0 384 340" style="enable-background:new 0 0 384 340;" xml:space="preserve">
<style type="text/css">
	.st0{fill:#F89E1C;}
	.st1{fill:#FFFFFF;}
</style>
<g>
	<path class="st0" d="M111.9,174.9c0-0.7-0.1-1-1-1c-4.3,0-8.6,0-13,0c-0.7,0-1-0.1-0.8-0.9c1.1-5,2.1-9.9,3.1-14.9
		c0.1-0.7,0.4-0.8,1-0.8c3.2,0,6.4,0,9.7,0c0.7,0,0.9-0.2,0.9-0.9c0-2.9,0-5.9,0-8.8c0-0.7-0.2-0.9-0.9-0.9c-2.6,0-5.1,0-7.7,0
		c-0.7,0-0.9-0.1-0.7-0.9c1.4-6.4,2.8-12.9,4.2-19.3c0.2-0.8,0.1-1-0.7-1c-2.9,0-5.8,0-8.7,0c-0.7,0-0.9,0.2-1.1,0.9
		c-1.4,6.4-2.8,12.8-4.1,19.2c-0.2,0.9-0.5,1-1.3,1c-5.7,0-11.5,0-17.2,0c-1.3,0-1.3,0-1-1.3c1.4-6.2,2.7-12.5,4.1-18.7
		c0.2-0.9,0.1-1.2-0.9-1.2c-2.7,0.1-5.5,0.1-8.2,0c-1,0-1.3,0.3-1.5,1.2c-1.3,6.3-2.8,12.6-4.1,18.9c-0.2,0.8-0.5,1.1-1.3,1.1
		c-5.3,0-10.6,0-15.8,0c-0.1,0-0.2,0-0.3-0.1c0,3.5,0,7.1,0,10.6c0.1,0,0.2,0,0.3-0.1c0-0.1,0.1-0.1,0.1-0.2
		c0.4-0.1,0.9-0.1,1.3-0.1c3.9,0,7.8,0,11.7,0c0.1,0,0.1,0,0.2,0c1.7,0,1.9,0.2,1.5,2c-0.4,1.5-0.6,3.1-1,4.7
		c-0.6,2.9-1.2,5.9-1.8,8.8c-0.3,1.6-0.5,1.8-2.1,1.8c-2.9,0-5.8,0-8.7,0c-0.4,0-0.8,0-1.1-0.1c0-0.1-0.1-0.1-0.1-0.2
		c-0.1,0-0.2,0-0.3-0.1c0,3.5,0,7.1,0,10.6c0.1-0.1,0.2-0.1,0.3-0.2c0,0,0,0,0.1,0c0,0,0,0,0,0c2.7-0.2,5.5-0.1,8.2-0.1
		c0.9,0,1.1,0.4,0.9,1.5c-0.4,2.2-0.9,4.4-1.4,6.5c-0.9,4.1-1.7,8.2-2.6,12.2c-0.1,0.2-0.1,0.5-0.2,0.7c0,0,0,0.1-0.1,0.1
		c3.1,0,6.2,0,9.2,0c0.4,0,0.7,0,1.1-0.1c0-0.1,0-0.1-0.1-0.2c0.5-2.9,1.1-5.7,1.7-8.5c0.7-3.5,1.4-7,2.2-10.5
		c0.4-1.7,0.5-1.8,2.2-1.8c5.6,0,11.2,0,16.8,0c0.2,0,0.4,0,0.6,0c0.9,0.1,1.1,0.3,0.9,1.2c-0.3,1.7-0.7,3.4-1.1,5.2
		c-1,4.7-2.1,9.3-3,14c0,0.2-0.1,0.4-0.2,0.6c0,0,0,0.1-0.1,0.1c3.4,0,6.9,0,10.3,0c0.1-0.2,0.2-0.4,0.2-0.6
		c1.4-6.4,2.8-12.7,4.1-19.1c0.2-0.8,0.5-1.1,1.4-1.1c4.9,0.1,9.9,0,14.8,0c0.9,0,1-0.3,1-1.1C111.9,180.5,111.9,177.7,111.9,174.9z
		 M87.2,170.9c0,0,0,0.1,0,0.1c-0.2,0.9,0,2.2-0.7,2.6c-0.7,0.4-1.8,0.1-2.8,0.1c-5.2,0-10.5,0-15.7,0c-0.8,0-1-0.2-0.8-0.9
		c1.1-5,2.1-9.9,3.1-14.9c0.1-0.5,0.2-0.8,0.8-0.8c6.2,0,12.4,0,18.6,0c0.1,0,0.2,0.1,0.4,0.1C89,161.9,88.1,166.4,87.2,170.9z"/>
	<path class="st0" d="M72.1,169.8c-0.1,0-0.1,0.1-0.2,0.1C72,169.9,72,169.9,72.1,169.8C72.1,169.9,72.1,169.8,72.1,169.8
		C72.1,169.8,72.1,169.8,72.1,169.8C72.1,169.8,72.1,169.8,72.1,169.8z"/>
</g>
<g>
	<path class="st1" d="M268,173.1c-4.4-3.7-9.6-4.3-14.9-2.6c-6.2,1.9-10.4,8.1-10.4,15c0.1,0.7,0,1.4,0.2,2.2c0.5,3.9,2.4,6.9,5.8,9
		c3.1,1.9,6.6,2.4,10.2,2c3.6-0.4,6.7-1.9,9.1-4.6c3.3-3.7,4.7-8,4.2-13C271.8,178.1,270.6,175.2,268,173.1z M262.1,192.1
		c-2.9,1.9-7.9,2.1-10.6-0.6c-1.8-1.7-2.7-3.8-2.8-6.3c0-1.9,0.3-3.7,1.2-5.3c1.7-3.1,4.5-4.7,8.2-4.7c4.4,0,8,3.4,8.2,7.7
		C266.5,186.7,265.3,189.9,262.1,192.1z"/>
	<path class="st1" d="M171,172.8c-2.9-2.3-6.2-3.2-9.8-3.1c-4.8,0.1-8.8,2-11.8,5.8c-2.8,3.6-3.8,7.8-3.2,12.3c0.4,3.2,1.8,6,4.3,8
		c4.5,3.5,9.6,4.1,14.9,2.3c6.1-2,10.1-8.1,10.1-14.8c0-0.9,0-1.8-0.2-2.7C174.9,177.5,173.5,174.8,171,172.8z M162.7,193.2
		c-5.3,1.2-9.7-1.6-10.6-6.9c-0.1-0.5-0.1-0.9-0.1-1.5c0.2-3.3,1.2-6.3,4.2-8.2c4.6-2.9,11.7-1.7,13.3,5.2
		C170.4,185.8,168.3,191.9,162.7,193.2z"/>
	<path class="st1" d="M208.3,170c-1.6,0-3.2,0-4.8,0c-0.4,0-0.5,0.1-0.6,0.5c-0.2,1.7-0.4,3.4-0.6,5c-0.3,2.9-0.7,5.8-1,8.6
		c-0.1,1-0.2,2-0.4,3c-0.1,0-0.1,0-0.2-0.1c-2.7-2.8-5.4-5.6-8.1-8.4c-3.1-3.2-6.2-6.4-9.3-9.6c-0.1-0.1-0.2-0.3-0.4-0.3
		c-0.3,0.1-0.2,0.3-0.2,0.5c-0.2,1.3-0.3,2.5-0.5,3.8c-0.3,2.7-0.7,5.3-1,8c-0.4,3-0.7,6-1.1,9c-0.3,2.7-0.7,5.4-1,8.1
		c-0.1,0.4,0,0.5,0.5,0.5c1.6,0,3.1,0,4.7,0c0.5,0,0.7-0.2,0.7-0.6c0.2-1.6,0.4-3.1,0.5-4.7c0.4-3.8,0.9-7.6,1.3-11.3
		c1.3,1.2,2.7,2.4,4,3.7c4.6,4.6,9.1,9.2,13.6,13.8c0.1,0.1,0.2,0.3,0.4,0.2c0.2-0.1,0.1-0.3,0.1-0.4c0.4-2.9,0.7-5.8,1.1-8.7
		c0.4-3.3,0.8-6.7,1.3-10c0.4-3.4,0.8-6.8,1.3-10.2C208.8,170,208.7,170,208.3,170z"/>
	<path class="st1" d="M141.5,132c-3.6-0.1-7.3,0-10.9-0.1c-0.4,0-0.6,0.1-0.6,0.5c-0.2,2.1-0.5,4.2-0.8,6.3
		c-0.5,3.7-0.9,7.4-1.4,11.1c-0.4,3.4-0.8,6.9-1.3,10.3c-0.1,0.5,0.1,0.5,0.5,0.5c2,0,3.9,0,5.9,0c1.7,0,3.3,0,5,0
		c4.9-0.1,8.8-2.1,11.8-6c2.9-3.9,3.7-8.4,2.9-13.1C151.6,135.5,147.3,132.2,141.5,132z M145.3,151.3c-1.7,2.6-4.2,3.8-7.3,3.9
		c-0.7,0-1.3,0-2,0c-0.9,0-1.7,0-2.6,0c-0.4,0-0.6,0-0.5-0.5c0.5-3.5,0.9-7,1.3-10.5c0.3-2.1,0.5-4.2,0.8-6.2c0-0.4,0.2-0.5,0.6-0.5
		c1.7,0.1,3.5-0.1,5.2,0.1c3.8,0.6,6.1,3.1,6.1,7C147.1,146.9,146.6,149.2,145.3,151.3z"/>
	<path class="st1" d="M237.4,175.7c-2.1-3.8-5.5-5.5-9.6-5.6c-3.5-0.1-6.9-0.1-10.4-0.1c-1.1,0-1.2,0-1.3,1.1
		c-0.4,3-0.8,6.1-1.1,9.1c-0.4,3-0.7,6-1.1,8.9c-0.4,3-0.7,6-1.1,9c-0.1,0.5,0.1,0.6,0.6,0.6c1.9,0,3.8,0,5.7,0c1.8,0,3.5,0,5.3,0
		c0.6,0,1.3,0,1.9-0.2c5.1-0.9,8.8-3.7,11.1-8.3c1.4-2.8,1.8-5.8,1.6-8.9C238.8,179.3,238.3,177.4,237.4,175.7z M233.1,183.4
		c-0.1,1.5-0.3,3-0.9,4.4c-1.5,3.5-4.3,5.2-8,5.3c-0.7,0-1.3,0-2,0c-0.9,0-1.8,0-2.7,0c-0.3,0-0.4-0.1-0.4-0.4
		c0.4-3,0.8-5.9,1.1-8.9c0.3-2.6,0.6-5.2,0.9-7.9c0.1-0.5,0.2-0.6,0.7-0.6c1.7,0.1,3.5-0.1,5.2,0.1
		C231.1,176.2,233.5,179.3,233.1,183.4z"/>
	<path class="st1" d="M184.5,146.8c-0.2,1.5-0.4,2.9-0.6,4.4c1.6,0,3,0,4.5,0c0.3,0,0.5,0.1,0.4,0.4c-0.1,0.8-0.2,1.6-0.3,2.4
		c-0.1,1-0.1,1.1-1.1,1.2c-3,0.5-5.8,0.1-8.4-1.6c-1.8-1.1-2.8-2.8-3.1-4.9c-0.2-1.4,0-2.8,0.3-4.1c0.9-3.6,3-6,6.7-6.8
		c3.3-0.7,6.5-0.1,9.5,1.6c0.5,0.3,0.6,0.2,0.8-0.2c0.5-1,1-2,1.5-3c0.9-1.8,0.9-1.8-0.9-2.6c-3.3-1.5-6.7-1.9-10.2-1.6
		c-3.3,0.2-6.3,1.5-8.7,3.9c-3.7,3.7-5.1,8.2-4.9,13.3c0.2,4,2,7.2,5.5,9.3c3.8,2.4,8,3.2,12.4,2.3c1.8-0.3,3.5-0.9,5.1-1.7
		c0.7-0.3,1-0.8,1.1-1.5c0.4-3.9,0.9-7.9,1.4-11.8c-3.3,0-6.5,0-9.7,0C184.7,145.8,184.6,145.8,184.5,146.8z"/>
	<path class="st1" d="M133.9,183.4c-0.2-0.3-0.3-0.6,0.1-0.9c2.6-2.4,5.1-4.9,7.7-7.3c1.8-1.7,3.5-3.4,5.4-5.2c-2.5,0-4.9,0-7.2,0
		c-0.3,0-0.4,0.2-0.6,0.3c-3,2.9-5.9,5.9-8.9,8.8c-0.8,0.8-1.6,1.5-2.3,2.3c0.1-0.3,0.2-0.7,0.2-1c0.4-3.4,0.9-6.7,1.3-10.1
		c0-0.3-0.1-0.3-0.4-0.3c-1.7,0-3.3,0-5,0c-0.3,0-0.4,0-0.5,0.4c-0.2,2.1-0.5,4.1-0.8,6.2c-0.5,3.7-0.9,7.5-1.3,11.2
		c-0.4,3.5-0.8,7-1.3,10.5c-0.1,0.5,0.1,0.5,0.5,0.5c1.5,0,3,0,4.5,0c0.6,0,0.8-0.2,0.8-0.7c0.3-2.9,0.7-5.8,1-8.7
		c0.1-1,0.4-1.8,1.2-2.4c0.4-0.3,0.6-0.4,0.9,0.1c2.2,3.7,4.5,7.5,6.7,11.2c0.2,0.3,0.4,0.5,0.8,0.5c2.1,0,4.1,0,6.2,0
		c0.2,0,0.3,0.1,0.5-0.1c-0.1-0.1-0.2-0.3-0.2-0.4C140.2,193.3,137.1,188.3,133.9,183.4z"/>
	<path class="st1" d="M249.4,136.2c-0.5-1.6-1-3.2-1.5-4.8c-0.1-0.2,0-0.5-0.3-0.5c-0.3,0-0.3,0.3-0.5,0.5c0,0,0,0,0,0.1
		c-4.7,8.3-9.3,16.7-14,25c-0.8,1.4-1.6,2.9-2.4,4.4c1.8,0,3.5,0,5.2,0c0.4,0,0.5-0.1,0.7-0.4c0.8-1.6,1.7-3.2,2.6-4.8
		c0.2-0.3,0.3-0.4,0.6-0.4c2.9,0,5.7,0,8.6,0c0.4,0,0.5,0.2,0.6,0.5c0.4,1.5,0.8,3,1.2,4.6c0.1,0.2,0,0.5,0.4,0.5c2.1,0,4.2,0,6.3,0
		c0-0.1,0-0.2-0.1-0.3C254.5,152.3,251.9,144.3,249.4,136.2z M247.1,150.3c-1.7,0-3.3,0-5.1,0c1.2-2.3,2.4-4.5,3.7-6.9
		c0.5,1.7,0.9,3.2,1.3,4.7c0.2,0.6,0.3,1.2,0.5,1.7C247.6,150.2,247.5,150.3,247.1,150.3z"/>
	<path class="st1" d="M348.3,170c-2.2,0-4.3,0-6.5,0c-0.4,0-0.5,0.2-0.6,0.5c-1.8,2.9-3.5,5.8-5.3,8.7c-0.8,1.3-1.6,2.6-2.5,4.1
		c-1.6-4.3-3.2-8.5-4.8-12.7c-0.2-0.4-0.3-0.6-0.8-0.5c-1.9,0-3.9,0-5.8,0c-0.6,0-0.7,0.1-0.5,0.6c2.6,6.2,5.1,12.4,7.7,18.6
		c0.2,0.4,0.2,0.8,0.2,1.2c-0.3,2.6-0.7,5.2-1,7.8c0,0.4,0,0.5,0.4,0.5c1.6,0,3.2,0,4.8,0c0.4,0,0.5-0.1,0.5-0.5
		c0.3-2.3,0.6-4.7,0.9-7c0.1-0.7,0.1-1.4,0.6-2.1c3.5-5.1,6.9-10.3,10.3-15.4c0.8-1.2,1.6-2.5,2.5-3.7
		C348.4,170,348.3,170,348.3,170z"/>
	<path class="st1" d="M233.8,137.1c0.2-1.5,0.3-3.1,0.6-4.6c0.1-0.5-0.1-0.5-0.5-0.5c-3,0-6.1,0-9.1,0c-3.1,0-6.2,0-9.3,0
		c-0.4,0-0.6,0.1-0.6,0.5c-0.2,1.5-0.4,3.1-0.6,4.6c-0.1,0.4,0,0.5,0.4,0.5c1.9,0,3.8,0,5.7,0c0.4,0,0.5,0,0.4,0.5
		c-0.4,2.7-0.7,5.3-1,8c-0.3,2.6-0.7,5.2-1,7.8c-0.3,2.2-0.5,4.3-0.8,6.5c0,0.3,0,0.3,0.3,0.3c1.8,0,3.5,0,5.3,0
		c0.2,0,0.3-0.1,0.4-0.3c0.2-1.4,0.3-2.8,0.5-4.2c0.4-3,0.7-6,1.1-8.9c0.4-3,0.8-6,1.1-9.1c0.1-0.5,0.2-0.6,0.6-0.6
		c1.9,0,3.9,0,5.8,0C233.6,137.6,233.8,137.5,233.8,137.1z"/>
	<path class="st1" d="M318.3,170c-3.4,0-6.8,0-10.2,0c-2.7,0-5.4,0-8.1,0c-0.3,0-0.6,0-0.6,0.4c-0.2,1.7-0.4,3.4-0.6,5.2
		c0.2,0,0.5,0,0.7,0c1.8,0,3.6,0,5.5,0c0.4,0,0.5,0.1,0.5,0.5c-0.4,3.2-0.8,6.3-1.2,9.5c-0.5,4.2-1,8.4-1.6,12.7
		c-0.1,0.4,0.1,0.5,0.4,0.5c1.7,0,3.3,0,5,0c0.4,0,0.5-0.1,0.5-0.5c0.4-3.3,0.8-6.7,1.3-10c0.5-4,1-8.1,1.5-12.1
		c0.1-0.4,0.2-0.6,0.6-0.6c1.9,0,3.8,0,5.7,0c0.4,0,0.6,0,0.7-0.6c0.1-1.5,0.3-3,0.6-4.4C319,170.1,318.9,170,318.3,170z"/>
	<path class="st1" d="M295.5,170c-6.1,0-12.3,0-18.4,0c-0.5,0-0.6,0.2-0.6,0.6c-0.2,1.7-0.4,3.3-0.6,5.1c2,0,3.9,0,5.8,0
		c0.9,0,0.8,0,0.7,0.8c-0.3,2.3-0.6,4.7-0.9,7c-0.3,2.6-0.7,5.3-1,7.9c-0.3,2.3-0.6,4.6-0.8,6.9c-0.1,0.4,0,0.5,0.5,0.5
		c1.5,0,3.1-0.1,4.6,0c0.7,0,0.8-0.3,0.9-0.9c0.2-2,0.5-3.9,0.7-5.9c0.4-3,0.8-6,1.1-9.1c0.3-2.3,0.6-4.5,0.8-6.8
		c0.1-0.5,0.3-0.6,0.8-0.6c1.9,0,3.8,0,5.7,0c0.4,0,0.6,0,0.6-0.5c0.2-1.5,0.4-3.1,0.6-4.6C296,170.1,295.9,170,295.5,170z"/>
	<path class="st1" d="M280.6,155.2c-4.1,0-8.1,0-12.2,0c-0.2,0-0.3,0-0.5,0c-0.2,0-0.3-0.1-0.3-0.3c0.1-0.7,0.2-1.3,0.2-2
		c0.4-3.4,0.8-6.7,1.3-10.1c0.4-3.4,0.8-6.9,1.3-10.3c0-0.4,0-0.5-0.4-0.5c-1.6,0-3.2,0-4.8,0c-0.3,0-0.5,0.1-0.5,0.4
		c-0.1,0.9-0.2,1.8-0.3,2.7c-0.3,2.7-0.6,5.3-1,8c-0.4,3-0.7,6-1.1,8.9c-0.3,2.7-0.6,5.4-1,8c-0.1,0.5,0,0.7,0.6,0.7c3,0,6,0,9,0
		c3,0,6,0,9.1,0c0.4,0,0.6,0,0.6-0.5c0.1-1.5,0.3-3,0.5-4.4C281.2,155.2,281,155.2,280.6,155.2z"/>
	<path class="st1" d="M165.5,132c-1.6,0-3.3,0-4.9,0c-0.4,0-0.5,0.1-0.6,0.5c-0.5,4.1-1,8.1-1.5,12.2c-0.6,5.2-1.3,10.5-1.9,15.7
		c0,0.3,0.1,0.4,0.4,0.4c0.8,0,1.7,0,2.5,0c0.9,0,1.7,0,2.6,0c0.3,0,0.4-0.1,0.4-0.4c0.1-1,0.2-2,0.4-3c0.4-3.7,0.9-7.4,1.3-11.1
		c0.6-4.6,1.1-9.2,1.7-13.8C166,132,165.9,132,165.5,132z"/>
	<path class="st1" d="M209,132c-1.7,0-3.3,0-5,0c-0.3,0-0.5,0.1-0.5,0.4c-0.2,1.6-0.4,3.2-0.6,4.8c-0.5,3.7-0.9,7.4-1.3,11.1
		c-0.5,4-1,8-1.5,12c0,0.3,0.1,0.4,0.4,0.4c0.8,0,1.7,0,2.5,0c0.8,0,1.7,0,2.5,0c0.4,0,0.5-0.1,0.5-0.5c0.1-0.9,0.2-1.7,0.3-2.6
		c0.4-3,0.7-6,1.1-9c0.3-2.7,0.6-5.3,1-8c0.3-2.7,0.7-5.5,1-8.2C209.5,132.1,209.5,131.9,209,132z"/>
</g>
</svg>
