<svg width="36" height="36" viewBox="0 0 36 36" fill="none" xmlns="http://www.w3.org/2000/svg">
<path d="M33.6801 15.4H25.7701L19.2501 21.89C18.8753 22.2625 18.3684 22.4716 17.8401 22.4716C17.3117 22.4716 16.8048 22.2625 16.4301 21.89L2.00005 7.5C1.95569 7.66304 1.93217 7.83105 1.93005 8V28C1.93005 28.5304 2.14077 29.0391 2.51584 29.4142C2.89091 29.7893 3.39962 30 3.93005 30H31.9301C32.4605 30 32.9692 29.7893 33.3443 29.4142C33.7193 29.0391 33.9301 28.5304 33.9301 28V15.38L33.6801 15.4ZM5.30005 28H3.91005V26.57L11.1801 19.36L12.5901 20.77L5.30005 28ZM31.9101 28H30.5101L23.2201 20.77L24.6301 19.36L31.9001 26.57L31.9101 28Z" fill="black"/>
<path d="M22.94 15.4H22.24C21.591 15.4084 20.9514 15.2449 20.3859 14.9263C19.8205 14.6077 19.3493 14.1451 19.0204 13.5856C18.6914 13.0261 18.5162 12.3896 18.5126 11.7406C18.509 11.0915 18.6772 10.4531 19 9.89L21.29 6H3.92001C3.74056 6.00277 3.56229 6.02967 3.39001 6.08L17.84 20.47L22.94 15.4Z" fill="black"/>
<path d="M26.85 1.13981L21.13 10.9998C20.9969 11.1951 20.9205 11.4235 20.9093 11.6596C20.898 11.8957 20.9524 12.1303 21.0663 12.3374C21.1802 12.5445 21.3492 12.716 21.5546 12.8329C21.76 12.9498 21.9938 13.0076 22.23 12.9998H33.68C33.9162 13.0076 34.15 12.9498 34.3554 12.8329C34.5608 12.716 34.7298 12.5445 34.8437 12.3374C34.9576 12.1303 35.012 11.8957 35.0007 11.6596C34.9895 11.4235 34.9131 11.1951 34.78 10.9998L29.06 1.13981C28.9472 0.946869 28.7858 0.786825 28.592 0.675603C28.3981 0.564381 28.1785 0.505859 27.955 0.505859C27.7315 0.505859 27.5119 0.564381 27.318 0.675603C27.1242 0.786825 26.9628 0.946869 26.85 1.13981V1.13981Z" fill="black"/>
</svg>
